<svg width="25" height="26" viewBox="0 0 25 26" fill="none" xmlns="http://www.w3.org/2000/svg">
<g clip-path="url(#clip0_92_1858)">
<g clip-path="url(#clip1_92_1858)">
<g clip-path="url(#clip2_92_1858)">
<path d="M10.0152 19.2061H14.0692C14.2012 18.0041 14.8142 17.0121 15.8092 15.9291C15.9222 15.8071 16.6412 15.0621 16.7262 14.9561C17.4325 14.0737 17.8752 13.0098 18.0033 11.8869C18.1314 10.7639 17.9398 9.62757 17.4504 8.60877C16.9611 7.58997 16.1939 6.73011 15.2373 6.12821C14.2807 5.5263 13.1735 5.20684 12.0433 5.20659C10.913 5.20635 9.80574 5.52535 8.84886 6.12684C7.89198 6.72834 7.12445 7.58787 6.63466 8.60646C6.14487 9.62505 5.95274 10.7613 6.08039 11.8843C6.20804 13.0073 6.65029 14.0714 7.3562 14.9541C7.4422 15.0611 8.1632 15.8071 8.2742 15.9281C9.2702 17.0121 9.8832 18.0041 10.0152 19.2061ZM14.0422 21.2061H10.0422V22.2061H14.0422V21.2061ZM5.7962 16.2061C4.85439 15.0294 4.26414 13.6105 4.09346 12.113C3.92278 10.6155 4.1786 9.10024 4.83145 7.74177C5.4843 6.38331 6.50763 5.2369 7.78355 4.43461C9.05947 3.63232 10.5361 3.20679 12.0433 3.20703C13.5505 3.20727 15.0269 3.63328 16.3026 4.43598C17.5783 5.23868 18.6012 6.38541 19.2537 7.74408C19.9061 9.10276 20.1614 10.6181 19.9902 12.1156C19.8191 13.613 19.2284 15.0317 18.2862 16.2081C17.6662 16.9801 16.0422 18.2061 16.0422 19.7061V22.2061C16.0422 22.7365 15.8315 23.2452 15.4564 23.6203C15.0813 23.9953 14.5726 24.2061 14.0422 24.2061H10.0422C9.51176 24.2061 9.00306 23.9953 8.62798 23.6203C8.25291 23.2452 8.0422 22.7365 8.0422 22.2061V19.7061C8.0422 18.2061 6.4172 16.9801 5.7962 16.2061ZM13.0422 11.2101H15.5422L11.0422 17.2101V13.2101H8.5422L13.0422 7.20603V11.2111V11.2101Z" fill="#85D95F"/>
</g>
</g>
</g>
<defs>
<clipPath id="clip0_92_1858">
<rect width="25" height="25" fill="white" transform="translate(0 0.300049)"/>
</clipPath>
<clipPath id="clip1_92_1858">
<rect width="25" height="25" fill="white" transform="translate(0 0.300049)"/>
</clipPath>
<clipPath id="clip2_92_1858">
<rect width="25" height="25" fill="white" transform="translate(0 0.300049)"/>
</clipPath>
</defs>
</svg>
