<svg width="26" height="26" viewBox="0 0 26 26" fill="none" xmlns="http://www.w3.org/2000/svg">
<g clip-path="url(#clip0_92_1876)">
<g clip-path="url(#clip1_92_1876)">
<g clip-path="url(#clip2_92_1876)">
<path d="M13.4688 2.74854C18.9918 2.74854 23.4688 7.22553 23.4688 12.7485C23.4688 18.2715 18.9918 22.7485 13.4688 22.7485C7.94575 22.7485 3.46875 18.2715 3.46875 12.7485C3.46875 7.22553 7.94575 2.74854 13.4688 2.74854ZM15.1388 16.7485H11.7988L10.4187 18.6455L10.9727 20.3515C11.7785 20.6154 12.621 20.7494 13.4688 20.7485C14.3398 20.7485 15.1788 20.6085 15.9648 20.3515L16.5178 18.6455L15.1378 16.7485H15.1388ZM6.76275 11.6205L5.47075 12.5575L5.46875 12.7485C5.46875 14.4785 6.01775 16.0795 6.95075 17.3885H8.86075L10.1838 15.5685L9.15575 12.3985L6.76275 11.6205ZM20.1748 11.6205L17.7818 12.3985L16.7538 15.5685L18.0758 17.3885H19.9858C20.9526 16.0347 21.4712 14.4121 21.4688 12.7485L21.4658 12.5585L20.1748 11.6205ZM13.4688 10.2845L11.1248 11.9865L12.0208 14.7485H14.9158L15.8118 11.9865L13.4688 10.2845ZM15.7598 5.08154L14.4688 6.02154V8.53854L17.1628 10.4955L19.4018 9.76853L19.9558 8.06554C18.9234 6.63641 17.4486 5.58758 15.7598 5.08154ZM11.1768 5.08154C9.48816 5.58804 8.0137 6.63721 6.98175 8.06653L7.53575 9.76853L9.77475 10.4955L12.4688 8.53854V6.02154L11.1768 5.08154Z" fill="#85D95F"/>
</g>
</g>
</g>
<defs>
<clipPath id="clip0_92_1876">
<rect width="25" height="25" fill="white" transform="translate(0.980469 0.300049)"/>
</clipPath>
<clipPath id="clip1_92_1876">
<rect width="25" height="25" fill="white" transform="translate(0.980469 0.300049)"/>
</clipPath>
<clipPath id="clip2_92_1876">
<rect width="25" height="25" fill="white" transform="translate(0.980469 0.300049)"/>
</clipPath>
</defs>
</svg>
