<svg width="25" height="26" viewBox="0 0 25 26" fill="none" xmlns="http://www.w3.org/2000/svg">
<g clip-path="url(#clip0_92_1871)">
<g clip-path="url(#clip1_92_1871)">
<path d="M4.7793 7.12031V19.9443L9.8443 17.7743L15.8443 20.7743L20.7793 18.6573V5.83431L22.0823 5.27631C22.1583 5.24369 22.2413 5.23048 22.3238 5.23785C22.4062 5.24523 22.4856 5.27296 22.5547 5.31855C22.6238 5.36415 22.6805 5.42619 22.7197 5.49911C22.7589 5.57202 22.7793 5.65353 22.7793 5.73631V19.9773L15.7793 22.9773L9.7793 19.9773L3.4763 22.6783C3.40022 22.7109 3.31722 22.7241 3.23477 22.7167C3.15231 22.7093 3.07298 22.6816 3.00389 22.636C2.9348 22.5904 2.87811 22.5284 2.83891 22.4555C2.79971 22.3825 2.77923 22.301 2.7793 22.2183V7.97731L4.7793 7.12031ZM17.0223 12.2203L12.7793 16.4623L8.5363 12.2203C7.69729 11.3811 7.12595 10.312 6.89452 9.1482C6.66309 7.98434 6.78197 6.77799 7.23612 5.68169C7.69028 4.5854 8.45931 3.64838 9.44599 2.98914C10.4326 2.3299 11.5926 1.97803 12.7793 1.97803C13.9659 1.97803 15.1259 2.3299 16.1126 2.98914C17.0993 3.64838 17.8683 4.5854 18.3224 5.68169C18.7766 6.77799 18.8955 7.98434 18.664 9.1482C18.4326 10.312 17.8613 11.3811 17.0223 12.2203ZM12.7793 13.6343L15.6073 10.8053C16.1668 10.2459 16.5479 9.53322 16.7023 8.75726C16.8568 7.9813 16.7776 7.17698 16.4749 6.446C16.1722 5.71503 15.6595 5.09024 15.0017 4.65066C14.3438 4.21108 13.5704 3.97646 12.7793 3.97646C11.9881 3.97646 11.2147 4.21108 10.5569 4.65066C9.89907 5.09024 9.38638 5.71503 9.08367 6.446C8.78095 7.17698 8.70181 7.9813 8.85625 8.75726C9.01069 9.53322 9.39177 10.2459 9.9513 10.8053L12.7793 13.6343Z" fill="#85D95F"/>
</g>
</g>
<defs>
<clipPath id="clip0_92_1871">
<rect width="25" height="25" fill="white" transform="translate(-0.00976562 0.300049)"/>
</clipPath>
<clipPath id="clip1_92_1871">
<rect width="25" height="25" fill="white" transform="translate(-0.00976562 0.300049)"/>
</clipPath>
</defs>
</svg>
