<svg width="26" height="26" viewBox="0 0 26 26" fill="none" xmlns="http://www.w3.org/2000/svg">
<g clip-path="url(#clip0_92_1885)">
<g clip-path="url(#clip1_92_1885)">
<g clip-path="url(#clip2_92_1885)">
<path d="M4.82011 3.65486L13.0371 1.82886L21.2541 3.65486C21.4761 3.70422 21.6747 3.82782 21.8171 4.00526C21.9594 4.1827 22.037 4.40338 22.0371 4.63086V14.6178C22.037 15.6055 21.7931 16.578 21.327 17.4488C20.8609 18.3197 20.1869 19.0619 19.3651 19.6098L13.0371 23.8288L6.70911 19.6098C5.88739 19.062 5.21357 18.3199 4.74746 17.4493C4.28135 16.5786 4.03735 15.6064 4.03711 14.6188V4.63086C4.03715 4.40338 4.11475 4.1827 4.2571 4.00526C4.39945 3.82782 4.59805 3.70422 4.82011 3.65486ZM6.03711 5.43286V14.6178C6.03712 15.2763 6.19969 15.9245 6.51037 16.5051C6.82106 17.0857 7.27026 17.5805 7.81811 17.9458L13.0371 21.4258L18.2561 17.9458C18.8038 17.5806 19.2529 17.0859 19.5636 16.5055C19.8743 15.9252 20.0369 15.2771 20.0371 14.6188V5.43286L13.0371 3.87886L6.03711 5.43286Z" fill="#85D95F"/>
</g>
</g>
</g>
<defs>
<clipPath id="clip0_92_1885">
<rect width="25" height="25" fill="white" transform="translate(0.969727 0.300049)"/>
</clipPath>
<clipPath id="clip1_92_1885">
<rect width="25" height="25" fill="white" transform="translate(0.969727 0.300049)"/>
</clipPath>
<clipPath id="clip2_92_1885">
<rect width="25" height="25" fill="white" transform="translate(0.969727 0.300049)"/>
</clipPath>
</defs>
</svg>
