<svg width="17" height="18" viewBox="0 0 17 18" fill="none" xmlns="http://www.w3.org/2000/svg">
<mask id="mask0_263_236" style="mask-type:luminance" maskUnits="userSpaceOnUse" x="0" y="1" width="17" height="17">
<path d="M16.1559 9.20113C16.1559 4.866 12.6416 1.35168 8.30648 1.35168C3.97135 1.35168 0.457031 4.866 0.457031 9.20113C0.457031 13.5363 3.97135 17.0506 8.30648 17.0506C12.6416 17.0506 16.1559 13.5363 16.1559 9.20113Z" fill="white"/>
</mask>
<g mask="url(#mask0_263_236)">
<path d="M8.30652 15.0228L11.5444 11.7849C12.1847 11.1445 12.6208 10.3287 12.7974 9.44046C12.974 8.55226 12.8833 7.63163 12.5368 6.79499C12.1902 5.95834 11.6033 5.24325 10.8503 4.74014C10.0974 4.23703 9.21211 3.9685 8.30652 3.9685C7.40093 3.9685 6.51568 4.23703 5.7627 4.74014C5.00972 5.24325 4.42284 5.95834 4.07627 6.79499C3.72969 7.63163 3.63899 8.55226 3.81562 9.44046C3.99226 10.3287 4.42831 11.1445 5.06862 11.7849L8.30652 15.0228ZM8.30652 16.8726L4.1437 12.7098C3.32038 11.8865 2.7597 10.8375 2.53255 9.69555C2.3054 8.55357 2.42199 7.36988 2.86757 6.29415C3.31315 5.21843 4.06771 4.299 5.03584 3.65212C6.00396 3.00524 7.14217 2.65997 8.30652 2.65997C9.47088 2.65997 10.6091 3.00524 11.5772 3.65212C12.5453 4.299 13.2999 5.21843 13.7455 6.29415C14.191 7.36988 14.3076 8.55357 14.0805 9.69555C13.8533 10.8375 13.2926 11.8865 12.4693 12.7098L8.30652 16.8726ZM8.30652 9.85525C8.65349 9.85525 8.98625 9.71742 9.23159 9.47208C9.47693 9.22674 9.61477 8.89398 9.61477 8.54701C9.61477 8.20004 9.47693 7.86729 9.23159 7.62195C8.98625 7.3766 8.65349 7.23877 8.30652 7.23877C7.95956 7.23877 7.6268 7.3766 7.38146 7.62195C7.13611 7.86729 6.99828 8.20004 6.99828 8.54701C6.99828 8.89398 7.13611 9.22674 7.38146 9.47208C7.6268 9.71742 7.95956 9.85525 8.30652 9.85525ZM8.30652 11.1635C7.61259 11.1635 6.94708 10.8878 6.45639 10.3972C5.9657 9.90646 5.69004 9.24095 5.69004 8.54701C5.69004 7.85308 5.9657 7.18756 6.45639 6.69688C6.94708 6.20619 7.61259 5.93053 8.30652 5.93053C9.00046 5.93053 9.66597 6.20619 10.1567 6.69688C10.6473 7.18756 10.923 7.85308 10.923 8.54701C10.923 9.24095 10.6473 9.90646 10.1567 10.3972C9.66597 10.8878 9.00046 11.1635 8.30652 11.1635Z" fill="#46516B"/>
</g>
</svg>
