<svg width="25" height="26" viewBox="0 0 25 26" fill="none" xmlns="http://www.w3.org/2000/svg">
<g clip-path="url(#clip0_92_1894)">
<g clip-path="url(#clip1_92_1894)">
<g clip-path="url(#clip2_92_1894)">
<path d="M21.6211 21.8288H3.62109C3.35588 21.8288 3.10152 21.7235 2.91399 21.5359C2.72645 21.3484 2.62109 21.094 2.62109 20.8288V13.3158C2.62108 13.1729 2.65168 13.0317 2.71085 12.9016C2.77002 12.7716 2.85637 12.6557 2.96409 12.5618L6.62109 9.37286V4.82886C6.62109 4.56364 6.72645 4.30929 6.91399 4.12175C7.10152 3.93422 7.35588 3.82886 7.62109 3.82886H21.6211C21.8863 3.82886 22.1407 3.93422 22.3282 4.12175C22.5157 4.30929 22.6211 4.56364 22.6211 4.82886V20.8288C22.6211 21.094 22.5157 21.3484 22.3282 21.5359C22.1407 21.7235 21.8863 21.8288 21.6211 21.8288ZM9.62109 19.8288H12.6211V13.7708L8.62109 10.2829L4.62109 13.7708V19.8288H7.62109V15.8288H9.62109V19.8288ZM14.6211 19.8288H20.6211V5.82886H8.62109V7.95586C8.85509 7.95586 9.09009 8.03786 9.27809 8.20286L14.2781 12.5618C14.3858 12.6557 14.4722 12.7716 14.5313 12.9016C14.5905 13.0317 14.6211 13.1729 14.6211 13.3158V19.8288ZM16.6211 11.8288H18.6211V13.8288H16.6211V11.8288ZM16.6211 15.8288H18.6211V17.8288H16.6211V15.8288ZM16.6211 7.82886H18.6211V9.82886H16.6211V7.82886ZM12.6211 7.82886H14.6211V9.82886H12.6211V7.82886Z" fill="#85D95F"/>
</g>
</g>
</g>
<defs>
<clipPath id="clip0_92_1894">
<rect width="25" height="25" fill="white" transform="translate(0 0.300049)"/>
</clipPath>
<clipPath id="clip1_92_1894">
<rect width="25" height="25" fill="white" transform="translate(0 0.300049)"/>
</clipPath>
<clipPath id="clip2_92_1894">
<rect width="25" height="25" fill="white" transform="translate(0 0.300049)"/>
</clipPath>
</defs>
</svg>
