<svg width="22" height="22" viewBox="0 0 22 22" fill="none" xmlns="http://www.w3.org/2000/svg">
<path d="M21.998 12.0204C21.9874 15.0475 21.9922 18.0745 21.9922 21.1005V21.5H0.00680992V21.1005C0.00680992 18.0745 0.0126251 15.0475 0.00196391 12.0204C2.54982e-05 11.8949 2.54982e-05 11.7704 2.54982e-05 11.644C-0.00191291 11.3144 0.106638 11.0922 0.336339 10.8652C2.67309 8.56329 5.00693 6.25758 7.33883 3.95186L10.7146 0.616387C10.8716 0.461204 11.1265 0.461204 11.2845 0.616387C13.4681 2.77458 15.6517 4.93277 17.8353 7.08905C19.1108 8.34872 20.3853 9.60647 21.6617 10.8642L21.6627 10.8652C21.8924 11.0922 22.0019 11.3144 22 11.644C21.999 11.7704 21.999 11.8949 21.998 12.0204Z" fill="#85D95F"/>
</svg>
