<svg width="175" height="47" viewBox="0 0 175 47" fill="none" xmlns="http://www.w3.org/2000/svg">
<path d="M46.916 16.7858V33.7235H27.7159V10.6719H40.8615C42.8797 12.7119 44.8963 14.7488 46.916 16.7858Z" fill="#042F40"/>
<path d="M12.1166 16.7872C11.7516 17.1548 11.5814 17.5148 11.5844 18.0484C11.586 18.2516 11.586 18.4549 11.586 18.6581C11.6028 23.5604 11.5952 28.4627 11.5952 33.3634V34.0104H0.650207C0.297489 34.0104 0.0122482 33.7203 0.0122482 33.3634C0.0122482 31.0767 0.0137817 28.7885 0.0137817 26.5002C0.0137817 23.8862 0.0122482 21.2721 0.0015133 18.6566C-2.02502e-05 18.4533 -2.02502e-05 18.2501 -2.02502e-05 18.0469C-0.0015538 17.5132 0.168671 17.1533 0.532123 16.7856C6.01151 11.2612 11.4817 5.72442 16.9534 0.189165C17.2034 -0.0637062 17.6067 -0.0637062 17.8567 0.189165C19.6371 1.99029 21.4176 3.78987 23.1981 5.591C19.5053 9.32512 15.8125 13.0592 12.1166 16.7872Z" fill="#85D95F"/>
<path d="M43.9148 22.2063V22.4654L35.3208 22.5383C35.468 21.3313 35.9664 20.2764 36.8206 19.3751C37.6733 18.4753 38.7698 18.0254 40.1101 18.0254C41.3783 18.0254 42.3276 18.3946 42.9625 19.1346C43.5974 19.8762 43.9148 20.8985 43.9148 22.2063Z" fill="#85D95F"/>
<path d="M47.4512 18.0487C47.4543 17.5151 47.281 17.1551 46.9175 16.7875L46.916 16.7859C44.8963 14.749 42.8797 12.712 40.8615 10.672C37.4064 7.1799 33.9513 3.68468 30.4962 0.189467C30.2463 -0.0618535 29.8429 -0.0618535 29.5945 0.189467L24.2531 5.5913C20.5634 9.32543 16.8706 13.0596 13.1732 16.7875C12.8098 17.1551 12.638 17.5151 12.6411 18.0487C12.6411 18.252 12.6411 18.4552 12.6441 18.6584C12.661 23.5607 12.6518 28.463 12.6518 33.3638V34.0107H47.4389V33.3638C47.4389 28.463 47.4313 23.5607 47.4481 18.6584C47.4497 18.4552 47.4497 18.252 47.4512 18.0487ZM45.1033 17.1381C46.2366 18.3218 46.8025 19.9383 46.8025 21.983C46.8025 22.9696 46.6814 23.871 46.4375 24.6839L35.1751 24.7584V24.9057C35.2242 26.5828 35.7548 27.9526 36.7654 29.0122C37.7775 30.0733 39.0872 30.6023 40.6959 30.6023C42.6711 30.6023 44.3396 30.1354 45.706 29.1968L46.2535 32.0079C44.7429 32.9449 42.8659 33.4134 40.6238 33.4134C38.1134 33.4134 36.0707 32.5881 34.4988 30.9359C32.9254 29.2837 32.1402 27.163 32.1402 24.5722C32.1402 21.8604 32.9254 19.6482 34.4988 17.9339C36.0707 16.2197 38.0398 15.3618 40.4045 15.3618C42.4027 15.3618 43.9685 15.9544 45.1033 17.1381Z" fill="#85D95F"/>
<path d="M56.9301 30.6022C55.346 30.6022 54.0716 30.0468 53.11 28.9376C52.147 27.8284 51.6654 26.2987 51.6654 24.3518C51.6654 22.4281 52.1286 20.9186 53.0548 19.8203C53.9811 18.7234 55.2969 18.1743 57.0037 18.1743C58.7351 18.1743 60.2825 18.6443 61.6473 19.5813L62.4141 16.8075C60.8775 15.8457 59.074 15.3647 57.0022 15.3647C54.5393 15.3647 52.5166 16.1978 50.9324 17.8624C49.3467 19.527 48.5554 21.7036 48.5554 24.3906C48.5554 27.1287 49.2746 29.3177 50.7131 30.9559C52.15 32.5957 54.1743 33.4148 56.7829 33.4148C58.9514 33.4148 60.7916 32.9463 62.3037 32.0093L61.7547 29.1982C60.3929 30.1352 58.7827 30.6022 56.9301 30.6022Z" fill="#042F40"/>
<path d="M78.0119 17.8037C76.5366 16.153 74.5936 15.3262 72.1798 15.3262C69.7414 15.3262 67.754 16.1593 66.2189 17.8239C64.6822 19.4885 63.9155 21.6759 63.9155 24.3892C63.9155 27.1025 64.6654 29.2838 66.1637 30.9375C67.6619 32.5897 69.6065 33.415 71.9958 33.415C74.3835 33.415 76.3526 32.5835 77.9015 30.9189C79.4488 29.2543 80.2233 27.0777 80.2233 24.3892C80.2233 21.6511 79.4856 19.4559 78.0119 17.8037ZM75.9094 28.9564C75.0077 30.1044 73.7394 30.6769 72.1077 30.6769C70.499 30.6769 69.2246 30.0858 68.2861 28.9021C67.3476 27.7184 66.8783 26.2012 66.8783 24.352C66.8783 22.4779 67.3292 20.9623 68.2309 19.8018C69.1326 18.643 70.3993 18.0628 72.0326 18.0628C73.6413 18.0628 74.9141 18.6616 75.8542 19.8577C76.7912 21.0538 77.262 22.5757 77.262 24.4264C77.262 26.2989 76.8111 27.81 75.9094 28.9564Z" fill="#042F40"/>
<path d="M92.4917 24.7398C91.5532 23.9874 90.3279 23.4025 88.8173 22.9821C87.5245 22.6377 86.5553 22.2793 85.9097 21.9101C85.2641 21.5409 84.942 20.9855 84.942 20.2455C84.942 19.58 85.2089 19.0618 85.7456 18.691C86.2824 18.3218 87.0016 18.1356 87.9033 18.1356C89.5856 18.1356 91.1821 18.5561 92.6926 19.3938L93.4594 16.62C91.8016 15.7822 89.9982 15.3618 88.0475 15.3618C86.3422 15.3618 84.916 15.8303 83.7704 16.7673C82.6248 17.7059 82.0513 18.9501 82.0513 20.503C82.0513 21.9101 82.5083 22.9821 83.4223 23.7221C84.3363 24.4621 85.5371 25.0423 87.0231 25.4612C87.681 25.6334 88.1809 25.7823 88.5229 25.9049C88.8633 26.0274 89.259 26.2012 89.7114 26.4215C90.1607 26.6433 90.4843 26.9086 90.6791 27.2173C90.8738 27.526 90.972 27.8766 90.972 28.2707C90.972 29.0107 90.6622 29.5971 90.0396 30.0284C89.4185 30.4597 88.6195 30.6753 87.6442 30.6753C85.7425 30.6753 84.025 30.1447 82.4883 29.0851L81.72 31.859C83.4023 32.9186 85.353 33.4491 87.5705 33.4491C89.4231 33.4491 90.9413 32.9496 92.1237 31.9505C93.3045 30.9514 93.8965 29.6514 93.8965 28.0488C93.8995 26.5952 93.4302 25.4922 92.4917 24.7398Z" fill="#042F40"/>
<path d="M109.859 17.8781C108.53 16.2011 106.709 15.3634 104.394 15.3634C102.76 15.3634 101.199 16.0661 99.7132 17.4717V15.3618L96.7151 15.8427V41.4774H96.7167V44.2574H99.7148V41.1811H99.7132V32.9698C100.761 33.2661 101.968 33.4134 103.332 33.4134C105.818 33.4134 107.859 32.5447 109.457 30.8056C111.054 29.0681 111.853 26.9039 111.853 24.3132C111.851 21.7007 111.187 19.5551 109.859 17.8781ZM107.337 28.8819C106.398 30.078 105.099 30.6753 103.441 30.6753C101.955 30.6753 100.71 30.2688 99.7117 29.4544V19.8003C100.954 18.7143 102.308 18.1729 103.769 18.1729C105.305 18.1729 106.518 18.7407 107.407 19.8747C108.297 21.0088 108.743 22.5136 108.743 24.3876C108.744 26.1888 108.274 27.6858 107.337 28.8819Z" fill="#042F40"/>
<path d="M127.264 16.9163C126.325 15.88 125.051 15.3618 123.443 15.3618C121.323 15.3618 119.445 16.1887 117.812 17.8409V7.44678L114.814 7.9277V32.8581H117.812V20.1338C119.079 18.9005 120.603 18.2846 122.382 18.2846C123.503 18.2846 124.333 18.5809 124.868 19.172C125.405 19.7646 125.673 20.7761 125.673 22.2049V32.8565H128.671V21.2058C128.671 19.3829 128.202 17.951 127.264 16.9163Z" fill="#042F40"/>
<path d="M145.784 24.6839C146.028 23.8694 146.149 22.9696 146.149 21.9829C146.149 19.9367 145.583 18.3217 144.45 17.138C143.315 15.9559 141.749 15.3633 139.751 15.3633C137.387 15.3633 135.419 16.2212 133.846 17.9339C132.274 19.6481 131.487 21.8604 131.487 24.5737C131.487 27.1629 132.274 29.2836 133.846 30.9358C135.417 32.588 137.459 33.4134 139.971 33.4134C142.213 33.4134 144.09 32.9448 145.602 32.0078L145.053 29.1968C143.688 30.1353 142.018 30.6023 140.043 30.6023C138.434 30.6023 137.123 30.0733 136.112 29.0121C135.1 27.9526 134.569 26.5827 134.52 24.9057V24.7568L145.784 24.6839ZM136.167 19.3751C137.02 18.4753 138.116 18.0254 139.458 18.0254C140.727 18.0254 141.676 18.3946 142.311 19.1346C142.944 19.8746 143.262 20.8985 143.262 22.2048V22.4639L134.668 22.5368C134.815 21.3314 135.315 20.2764 136.167 19.3751Z" fill="#042F40"/>
<path d="M156.68 15.3618C154.803 15.3618 153.242 16.3609 152 18.3575V15.3618L149.002 15.8427V32.8581H152V21.7984C153.242 19.4559 154.705 18.2846 156.387 18.2846C157.314 18.2846 158.203 18.5421 159.057 19.0603L159.825 16.212C158.924 15.6457 157.875 15.3618 156.68 15.3618Z" fill="#042F40"/>
<path d="M174.634 24.6839C174.877 23.8694 174.998 22.9696 174.998 21.9829C174.998 19.9367 174.433 18.3217 173.299 17.138C172.164 15.9559 170.599 15.3633 168.601 15.3633C166.236 15.3633 164.268 16.2212 162.695 17.9339C161.123 19.6481 160.336 21.8604 160.336 24.5737C160.336 27.1629 161.123 29.2836 162.695 30.9358C164.267 32.588 166.308 33.4134 168.82 33.4134C171.062 33.4134 172.939 32.9448 174.451 32.0078L173.902 29.1968C172.537 30.1353 170.867 30.6023 168.893 30.6023C167.285 30.6023 165.974 30.0733 164.963 29.0121C163.951 27.9526 163.42 26.5827 163.371 24.9057V24.7568L174.634 24.6839ZM165.017 19.3751C165.869 18.4753 166.967 18.0254 168.308 18.0254C169.576 18.0254 170.525 18.3946 171.16 19.1346C171.793 19.8746 172.111 20.8985 172.111 22.2048V22.4639L163.517 22.5368C163.666 21.3314 164.164 20.2764 165.017 19.3751Z" fill="#042F40"/>
<path d="M106.169 37.9868C105.49 37.3399 104.561 37.0156 103.38 37.0156H101.218V44.2884H103.334C104.553 44.2884 105.501 43.9595 106.176 43.3002C106.85 42.6409 107.188 41.7395 107.188 40.5993C107.186 39.5071 106.847 38.6352 106.169 37.9868ZM105.45 42.6765C104.944 43.1373 104.254 43.37 103.38 43.37H102.195V37.9356H103.334C104.254 37.9356 104.964 38.1698 105.461 38.6383C105.961 39.1084 106.209 39.7848 106.209 40.6706C106.209 41.5471 105.956 42.2158 105.45 42.6765Z" fill="#042F40"/>
<path d="M112.686 41.7163C112.762 41.4604 112.801 41.178 112.801 40.8662C112.801 40.2224 112.623 39.7151 112.267 39.3412C111.91 38.9689 111.417 38.7827 110.789 38.7827C110.045 38.7827 109.425 39.0527 108.931 39.591C108.438 40.1308 108.189 40.8274 108.189 41.6807C108.189 42.4951 108.438 43.1622 108.931 43.6835C109.425 44.2032 110.069 44.4622 110.858 44.4622C111.563 44.4622 112.153 44.3149 112.63 44.0201L112.457 43.1358C112.028 43.4306 111.502 43.578 110.881 43.578C110.375 43.578 109.962 43.412 109.645 43.0769C109.326 42.7433 109.16 42.3121 109.145 41.7846V41.7381L112.686 41.7163ZM109.66 40.0471C109.928 39.7632 110.273 39.622 110.695 39.622C111.094 39.622 111.393 39.7384 111.592 39.9711C111.791 40.2038 111.891 40.5264 111.891 40.936V41.0167L109.189 41.0415C109.234 40.6614 109.391 40.331 109.66 40.0471Z" fill="#042F40"/>
<path d="M117.344 38.9595L115.872 43.1032L114.33 38.9595H113.317L115.398 44.3024H116.274L118.344 38.9595H117.344Z" fill="#042F40"/>
<path d="M123.281 41.7163C123.358 41.4604 123.396 41.178 123.396 40.8662C123.396 40.2224 123.218 39.7151 122.861 39.3412C122.503 38.9689 122.011 38.7827 121.382 38.7827C120.639 38.7827 120.019 39.0527 119.525 39.591C119.03 40.1308 118.783 40.8274 118.783 41.6807C118.783 42.4951 119.03 43.1622 119.525 43.6835C120.019 44.2032 120.662 44.4622 121.451 44.4622C122.157 44.4622 122.747 44.3149 123.223 44.0201L123.051 43.1358C122.621 43.4306 122.095 43.578 121.474 43.578C120.968 43.578 120.556 43.412 120.238 43.0769C119.919 42.7433 119.754 42.3121 119.738 41.7846V41.7381L123.281 41.7163ZM120.255 40.0471C120.524 39.7632 120.869 39.622 121.29 39.622C121.688 39.622 121.988 39.7384 122.187 39.9711C122.387 40.2038 122.487 40.5264 122.487 40.936V41.0167L119.783 41.0399C119.829 40.6614 119.987 40.331 120.255 40.0471Z" fill="#042F40"/>
<path d="M124.649 36.4464V44.2901H125.592V36.2959L124.649 36.4464Z" fill="#042F40"/>
<path d="M131.317 39.5522C130.852 39.0325 130.24 38.7734 129.481 38.7734C128.714 38.7734 128.089 39.0356 127.606 39.5584C127.122 40.0812 126.882 40.77 126.882 41.6248C126.882 42.4781 127.118 43.1638 127.589 43.685C128.061 44.2047 128.673 44.4638 129.424 44.4638C130.176 44.4638 130.795 44.2016 131.281 43.6788C131.769 43.156 132.011 42.4703 132.011 41.6248C132.011 40.7623 131.78 40.0719 131.317 39.5522ZM130.654 43.0614C130.371 43.4229 129.972 43.6028 129.458 43.6028C128.952 43.6028 128.55 43.4151 128.256 43.0443C127.961 42.672 127.814 42.1942 127.814 41.6124C127.814 41.0229 127.955 40.5466 128.239 40.1821C128.523 39.8175 128.921 39.636 129.435 39.636C129.941 39.636 130.343 39.8237 130.637 40.2007C130.933 40.5761 131.081 41.057 131.081 41.6373C131.081 42.2268 130.938 42.7015 130.654 43.0614Z" fill="#042F40"/>
<path d="M137.437 39.5754C137.02 39.0479 136.445 38.7842 135.718 38.7842C135.204 38.7842 134.714 39.0045 134.246 39.4466V38.7842L133.303 38.9362V47.0002H134.246V44.3241C134.576 44.4172 134.954 44.4637 135.385 44.4637C136.167 44.4637 136.81 44.1907 137.311 43.643C137.814 43.0954 138.064 42.4144 138.064 41.5999C138.064 40.7792 137.854 40.1044 137.437 39.5754ZM136.643 43.038C136.347 43.415 135.939 43.6027 135.417 43.6027C134.95 43.6027 134.559 43.4739 134.244 43.218V40.1804C134.635 39.8391 135.062 39.6685 135.522 39.6685C136.005 39.6685 136.387 39.8469 136.667 40.2037C136.946 40.5605 137.087 41.0336 137.087 41.6232C137.086 42.191 136.939 42.6626 136.643 43.038Z" fill="#042F40"/>
<path d="M143.505 41.7163C143.582 41.4604 143.62 41.178 143.62 40.8662C143.62 40.2224 143.441 39.7151 143.085 39.3412C142.728 38.9689 142.236 38.7827 141.607 38.7827C140.863 38.7827 140.244 39.0527 139.748 39.591C139.254 40.1308 139.008 40.8274 139.008 41.6807C139.008 42.4951 139.254 43.1622 139.748 43.6835C140.244 44.2032 140.886 44.4622 141.676 44.4622C142.381 44.4622 142.972 44.3149 143.447 44.0201L143.274 43.1358C142.844 43.4306 142.32 43.578 141.699 43.578C141.193 43.578 140.78 43.412 140.461 43.0769C140.144 42.7433 139.977 42.3121 139.961 41.7846V41.7381L143.505 41.7163ZM140.48 40.0471C140.748 39.7632 141.093 39.622 141.515 39.622C141.914 39.622 142.213 39.7384 142.412 39.9711C142.611 40.2038 142.711 40.5264 142.711 40.936V41.0167L140.007 41.0399C140.053 40.6614 140.211 40.331 140.48 40.0471Z" fill="#042F40"/>
<path d="M147.29 38.7842C146.7 38.7842 146.208 39.0976 145.818 39.7259V38.7842L144.875 38.9362V44.2884H145.818V40.8087C146.209 40.0718 146.669 39.7026 147.198 39.7026C147.49 39.7026 147.77 39.7833 148.039 39.9477L148.281 39.051C147.996 38.8726 147.666 38.7842 147.29 38.7842Z" fill="#042F40"/>
<path d="M152.184 41.7348C151.888 41.4974 151.504 41.3144 151.029 41.1825C150.623 41.0739 150.317 40.9607 150.113 40.8459C149.911 40.7295 149.808 40.5542 149.808 40.3215C149.808 40.1121 149.893 39.9492 150.061 39.8328C150.229 39.7165 150.455 39.6575 150.739 39.6575C151.268 39.6575 151.771 39.7894 152.247 40.0547L152.489 39.1812C151.968 38.9175 151.4 38.7856 150.787 38.7856C150.25 38.7856 149.801 38.933 149.44 39.2278C149.08 39.5225 148.9 39.9135 148.9 40.4022C148.9 40.8459 149.045 41.1825 149.331 41.4152C149.62 41.6479 149.997 41.8294 150.465 41.9613C150.673 42.0156 150.83 42.0621 150.937 42.1009C151.044 42.1412 151.169 42.194 151.311 42.2638C151.452 42.3336 151.555 42.4158 151.616 42.5136C151.678 42.6097 151.708 42.7214 151.708 42.8456C151.708 43.0783 151.61 43.2629 151.415 43.3978C151.219 43.5344 150.968 43.6026 150.662 43.6026C150.064 43.6026 149.523 43.4351 149.04 43.1015L148.799 43.9749C149.328 44.3085 149.942 44.4745 150.639 44.4745C151.222 44.4745 151.701 44.3178 152.072 44.0044C152.443 43.6895 152.63 43.2815 152.63 42.7773C152.627 42.3181 152.48 41.9721 152.184 41.7348Z" fill="#042F40"/>
<path d="M156.493 36.4464V44.2901H157.436V36.2959L156.493 36.4464Z" fill="#042F40"/>
<path d="M161.67 43.3935C161.318 43.5253 160.999 43.592 160.716 43.592C160.241 43.592 160.011 43.3407 160.026 42.8365L160.106 39.8222H161.75L161.785 38.9597H160.14L160.174 37.7388H159.266L159.243 38.8914L158.367 39.1583L158.333 39.7633L159.207 39.8207L159.128 42.7993C159.097 43.9085 159.606 44.4639 160.658 44.4639C161.049 44.4639 161.445 44.3863 161.844 44.2312L161.67 43.3935Z" fill="#042F40"/>
<path d="M166.386 36.4464V38.9596C166.018 38.8432 165.639 38.7858 165.248 38.7858C164.466 38.7858 163.822 39.0589 163.32 39.6065C162.819 40.1541 162.567 40.8336 162.567 41.6496C162.567 42.4719 162.776 43.1467 163.195 43.6742C163.613 44.2032 164.187 44.4654 164.914 44.4654C165.428 44.4654 165.918 44.2435 166.386 43.8014V44.2901H167.329V36.2959L166.386 36.4464ZM166.386 43.0676C165.995 43.4089 165.569 43.5795 165.109 43.5795C164.625 43.5795 164.244 43.4011 163.965 43.0443C163.684 42.6875 163.544 42.2143 163.544 41.6248C163.544 41.0586 163.692 40.587 163.988 40.21C164.282 39.8345 164.691 39.6453 165.213 39.6453C165.681 39.6453 166.072 39.774 166.386 40.03V43.0676Z" fill="#042F40"/>
</svg>
