<svg width="65" height="51" viewBox="0 0 65 51" fill="none" xmlns="http://www.w3.org/2000/svg">
<g clip-path="url(#clip0_138_20)">
<path d="M56.9009 23.0357C56.9009 22.8692 56.8843 22.6195 56.851 22.2865L56.7511 21.5872C57.85 20.9212 58.7324 20.1553 59.3984 19.2895C60.5306 17.8576 60.9469 16.2758 60.6472 14.5442L60.0478 14.794C59.5816 15.0271 59.132 15.3101 58.6991 15.6431C58.133 16.1093 57.6502 16.6255 57.2506 17.1916C56.7844 17.8909 56.4847 18.6401 56.3515 19.4393C55.9852 17.9408 55.3858 16.3258 54.5533 14.5942C54.8197 15.127 55.1527 15.6098 55.5523 16.0427L56.0018 15.2935C56.3681 14.6608 56.6179 14.0114 56.7511 13.3454C56.9842 12.413 57.0175 11.5306 56.851 10.6981C56.6845 9.63248 56.2016 8.66679 55.4024 7.80098L55.0028 8.30048C54.7031 8.76669 54.4534 9.24953 54.2536 9.74903C53.9872 10.4816 53.854 11.1809 53.854 11.8469C53.8207 12.7127 54.0205 13.5619 54.4534 14.3944C53.7208 12.9292 52.7218 11.464 51.4564 9.99879C51.9226 9.09969 52.2056 8.23388 52.3055 7.40138C52.4387 6.00278 52.0225 4.75403 51.0568 3.65513L50.7571 4.05473C50.524 4.35443 50.3408 4.68743 50.2076 5.05373C49.9745 5.55323 49.8247 6.05273 49.7581 6.55223C49.6915 7.18493 49.7414 7.80098 49.9079 8.40038C49.6082 8.10069 49.142 7.68443 48.5093 7.15163L48.7591 7.05173L48.4594 6.80198C48.2263 6.56888 47.9599 6.36908 47.6602 6.20258C47.2273 5.93618 46.7943 5.71973 46.3615 5.55323L45.7121 5.15363C45.146 4.78733 44.7297 4.52093 44.4633 4.35443C44.8962 4.58753 45.479 4.97048 46.2116 5.50328C44.7464 4.90388 43.2312 4.92053 41.6661 5.55323L42.1157 6.05273C42.5486 6.41903 42.9981 6.73538 43.4643 7.00178C44.1303 7.36808 44.8463 7.58453 45.6122 7.65113C46.5113 7.71774 47.4437 7.58453 48.4094 7.25153C48.8423 7.61783 49.4251 8.16728 50.1577 8.89988C50.3908 9.39938 50.7404 9.93219 51.2066 10.4983L51.3565 10.2485C53.0215 12.413 54.2702 14.6608 55.1027 16.9918C54.4367 16.1926 53.6708 15.5599 52.805 15.0937C51.6728 14.4943 50.4241 14.2612 49.0588 14.3944L49.3585 15.0437C49.6249 15.6098 49.9745 16.126 50.4074 16.5922C50.9735 17.2249 51.6395 17.7077 52.4054 18.0407C53.3711 18.4736 54.4534 18.6734 55.6522 18.6401C56.0185 19.9721 56.2349 21.1876 56.3015 22.2865C56.5346 25.3501 56.2016 28.2639 55.3025 31.0278C55.2026 29.7624 54.8863 28.6302 54.3535 27.6312C53.6209 26.2659 52.4887 25.2336 50.9569 24.5343L50.807 25.1336C50.7404 25.6332 50.7071 26.1327 50.7071 26.6322C50.7071 27.3648 50.807 28.0641 51.0068 28.7301C51.2732 29.5293 51.6728 30.2619 52.2056 30.9279C52.8383 31.7271 53.6708 32.3931 54.7031 32.9259C53.9372 34.7907 52.855 36.6555 51.4564 38.5203C51.8893 37.0551 52.0225 35.6731 51.856 34.3744C51.6229 32.443 50.7404 30.7947 49.2086 29.4294L48.859 30.0787C48.5926 30.5782 48.3761 31.111 48.2096 31.6771C47.9765 32.4763 47.86 33.2589 47.86 34.0248C47.86 34.9905 48.0598 35.9062 48.4594 36.772C48.8923 37.8043 49.5916 38.7534 50.5573 39.6192C48.2596 42.1167 45.6122 44.1147 42.6152 45.6132C39.4517 47.2449 36.0884 48.2106 32.5253 48.5103C28.9622 48.1773 25.6155 47.2116 22.4853 45.6132C19.4883 44.0814 16.8909 42.0501 14.6931 39.5193C15.6255 38.6535 16.3248 37.7044 16.791 36.6721C17.1573 35.8063 17.3405 34.8906 17.3405 33.9249C17.3738 33.159 17.2739 32.3764 17.0408 31.5772C16.8743 31.0444 16.6578 30.5116 16.3914 29.9788L16.0418 29.3794C14.4767 30.7447 13.5776 32.3764 13.3445 34.2745C13.178 35.6398 13.3278 37.0218 13.794 38.4204C12.6285 36.9552 11.5463 35.107 10.5473 32.8759C12.179 32.0101 13.3112 30.8446 13.9439 29.3794C14.4101 28.3471 14.6099 27.2149 14.5433 25.9828C14.51 25.3501 14.4267 24.834 14.2935 24.4343C12.7617 25.167 11.6295 26.1993 10.8969 27.5313C10.3641 28.5303 10.0478 29.6791 9.94787 30.9778C9.04877 28.1806 8.71576 25.2668 8.94886 22.2365C9.04877 21.1376 9.26521 19.9222 9.59822 18.5902C11.13 18.6235 12.462 18.2738 13.5942 17.5412C14.4267 17.0084 15.1094 16.3091 15.6422 15.4433C15.9086 15.0104 16.0917 14.6275 16.1916 14.2945C14.8263 14.1946 13.5776 14.4443 12.4454 15.0437C11.5796 15.5099 10.8137 16.126 10.1477 16.8919C11.0468 14.3944 12.2955 12.1466 13.8939 10.1486C13.9605 10.2485 14.0105 10.3318 14.0438 10.3984C14.4434 9.96548 14.793 9.43269 15.0927 8.79998L15.4923 8.40038C16.0584 7.80098 16.508 7.38473 16.841 7.15163C18.5726 7.81763 20.2209 7.73438 21.786 6.90188C22.5519 6.50228 23.1513 6.03608 23.5842 5.50328C22.0191 4.83728 20.504 4.80398 19.0388 5.40338H19.0887C19.8213 4.87058 20.3874 4.50428 20.787 4.30448L20.1377 4.70408C19.5383 5.03708 19.122 5.30348 18.8889 5.50328C17.9232 5.90288 17.124 6.40238 16.4913 7.00178L16.7411 7.05173L15.3425 8.35043C15.5423 7.75103 15.5922 7.13498 15.4923 6.50228C15.459 6.00278 15.3258 5.48663 15.0927 4.95383C14.9262 4.62083 14.7264 4.28783 14.4933 3.95483L14.1936 3.55523C13.2279 4.65413 12.8117 5.90288 12.9449 7.30148C13.0448 8.16728 13.3278 9.04974 13.794 9.94884C12.8616 11.0144 11.8626 12.463 10.797 14.2945C11.1966 13.462 11.3964 12.6128 11.3964 11.747C11.3964 11.0477 11.2632 10.3484 10.9968 9.64914C10.797 9.14964 10.5473 8.68343 10.2476 8.25053L9.84797 7.70108C8.81566 8.86658 8.28286 10.1819 8.24956 11.6471C8.21626 12.6461 8.43271 13.6784 8.89891 14.744C9.13202 15.2768 9.36512 15.7097 9.59822 16.0427C10.0311 15.6098 10.3808 15.127 10.6472 14.5942C9.94787 15.9262 9.33181 17.5412 8.79901 19.4393C8.56591 17.9408 7.78336 16.6754 6.45136 15.6431C5.78536 15.1103 5.13601 14.744 4.50331 14.5442C4.17031 16.2758 4.56991 17.8576 5.70211 19.2895C6.36811 20.1553 7.25056 20.9212 8.34946 21.5872C8.24956 22.2199 8.19961 22.7027 8.19961 23.0357C7.86661 26.3658 8.24956 29.6125 9.34846 32.776C10.4474 35.8063 12.1124 38.5619 14.3435 41.0427C16.5746 43.5236 19.2219 45.5133 22.2855 47.0118C25.449 48.5436 28.8456 49.4593 32.4753 49.759L32.5253 49.3095L32.6252 49.759C36.2216 49.4593 39.6015 48.5436 42.765 47.0118C45.8287 45.48 48.4843 43.482 50.7321 41.0178C52.9798 38.5536 54.6365 35.8063 55.7021 32.776C56.801 29.6125 57.2006 26.3658 56.9009 23.0357ZM43.4144 33.3255C43.3145 33.5586 43.1979 33.775 43.0647 33.9748C42.7983 34.5076 42.5652 35.0737 42.3654 35.6731C42.1323 36.4723 42.0324 37.2715 42.0657 38.0707C42.099 39.0697 42.3321 40.0188 42.765 40.9179C43.2645 41.9502 44.0471 42.9159 45.1127 43.815C45.1127 43.8816 45.2126 43.6568 45.4124 43.1406C45.6122 42.6245 45.7787 42.0667 45.9119 41.4673C46.1117 40.6015 46.195 39.769 46.1617 38.9698C46.0951 37.9708 45.8786 37.0218 45.5123 36.1227C45.0461 35.0904 44.3468 34.158 43.4144 33.3255ZM39.3684 46.2126C39.4683 45.9795 39.5682 45.7464 39.6681 45.5133C39.9012 44.9472 40.0844 44.3644 40.2176 43.765C40.4174 42.9325 40.5006 42.1 40.4673 41.2675C40.4007 40.2685 40.1843 39.3361 39.818 38.4703C39.3518 37.438 38.6525 36.5223 37.7201 35.7231L37.3205 36.3724C37.0541 36.9052 36.8376 37.4547 36.6711 38.0208C36.438 38.8533 36.3381 39.6691 36.3714 40.4683C36.4047 41.434 36.6212 42.3664 37.0208 43.2655C37.5536 44.3311 38.3361 45.3135 39.3684 46.2126ZM51.6562 40.4683C51.9226 40.4683 52.189 40.4683 52.4554 40.4683C53.1214 40.4683 53.7707 40.4184 54.4034 40.3185C55.3358 40.152 56.2016 39.9022 57.0008 39.5692C57.9665 39.1696 58.8157 38.6368 59.5483 37.9708C60.4141 37.2049 61.0967 36.2725 61.5962 35.1736L60.847 35.0737C60.2143 35.0404 59.5649 35.0571 58.8989 35.1237C57.9998 35.2236 57.1507 35.44 56.3515 35.773C55.3858 36.1726 54.52 36.7221 53.7541 37.4214C52.8883 38.2206 52.189 39.2362 51.6562 40.4683ZM47.6102 45.4134C47.8433 45.5133 48.0764 45.6298 48.3095 45.763C48.9089 46.0294 49.525 46.2625 50.1577 46.4623C51.0568 46.7287 51.9226 46.8786 52.7551 46.9119C53.8207 46.9785 54.8363 46.8786 55.802 46.6122C56.9342 46.3125 57.9665 45.7797 58.8989 45.0138L58.2496 44.6142C57.6835 44.2812 57.1007 44.0148 56.5013 43.815C55.6355 43.482 54.7864 43.2822 53.9539 43.2156C52.8883 43.149 51.856 43.2655 50.857 43.5652C49.7248 43.9315 48.6425 44.5476 47.6102 45.4134ZM39.9179 49.3594C40.151 49.4926 40.3841 49.6092 40.6172 49.7091C41.2166 50.0088 41.8326 50.2419 42.4653 50.4084C43.3644 50.6748 44.2302 50.8413 45.0627 50.9079C46.1283 50.9745 47.144 50.8746 48.1097 50.6082C49.2419 50.2752 50.2742 49.7257 51.2066 48.9598L50.5573 48.5602C49.9912 48.2605 49.4084 47.9941 48.809 47.761C47.9432 47.4613 47.0774 47.2782 46.2116 47.2116C45.1793 47.1117 44.1637 47.2116 43.1646 47.5113C42.0324 47.8776 40.9502 48.4936 39.9179 49.3594ZM55.6522 34.2246C55.9852 34.2246 56.3182 34.2246 56.6512 34.2246C57.517 34.158 58.3328 34.0248 59.0987 33.825C60.1976 33.492 61.1633 33.0258 61.9958 32.4264C62.9948 31.6938 63.7607 30.7281 64.2935 29.5293C64.2935 29.5293 64.2269 29.5293 64.0937 29.5293C62.6951 29.4294 61.4297 29.5626 60.2975 29.9289C58.0997 30.6282 56.5513 32.0601 55.6522 34.2246ZM57.0008 28.83C57.3005 28.6968 57.6169 28.5636 57.9499 28.4304C58.6825 28.0308 59.3651 27.5812 59.9978 27.0817C60.8303 26.3824 61.4797 25.5999 61.9459 24.7341C62.5453 23.6351 62.795 22.453 62.6951 21.1876L62.0957 21.3874C61.5629 21.5872 61.0468 21.8369 60.5473 22.1366C59.8813 22.5362 59.2985 22.9858 58.799 23.4853C58.1663 24.1513 57.7001 24.8839 57.4004 25.6831C57.0341 26.6155 56.9009 27.6645 57.0008 28.83ZM48.2096 5.10368C48.143 4.90388 48.0931 4.70408 48.0598 4.50428C47.9266 4.07138 47.7601 3.65513 47.5603 3.25553C47.2273 2.68943 46.8277 2.22323 46.3615 1.85693C45.7621 1.39073 45.0461 1.09103 44.2136 0.957829L44.2635 1.10768C44.3967 1.90688 44.6298 2.58953 44.9628 3.15563C45.6622 4.22123 46.7444 4.87058 48.2096 5.10368ZM56.2016 25.5832C56.1683 25.2835 56.1184 24.9838 56.0518 24.6841C55.8853 23.9848 55.6522 23.3188 55.3525 22.6861C54.8863 21.8203 54.3035 21.0877 53.6042 20.4883C52.7051 19.7557 51.6395 19.2728 50.4074 19.0397C50.3741 19.0397 50.3741 19.2395 50.4074 19.6391C50.4407 20.1053 50.524 20.5715 50.6572 21.0377C50.857 21.6704 51.1567 22.2532 51.5563 22.786C51.9892 23.452 52.5553 24.0014 53.2546 24.4343C54.0871 24.9671 55.0694 25.3501 56.2016 25.5832ZM52.855 12.9458C52.6885 12.746 52.5386 12.5296 52.4054 12.2965C51.9725 11.797 51.4897 11.3474 50.9569 10.9478C50.2243 10.415 49.4417 10.0487 48.6092 9.84893C47.5769 9.54924 46.5113 9.51593 45.4124 9.74903L45.5123 9.89888C46.0784 10.8313 46.7611 11.5639 47.5603 12.0967C49.0588 13.129 50.8237 13.412 52.855 12.9458ZM43.9139 3.35543C43.7141 3.18893 43.5309 3.02243 43.3644 2.85593C42.8982 2.48963 42.3987 2.17328 41.8659 1.90688C41.1333 1.57388 40.3841 1.37408 39.6182 1.30748C38.6858 1.24088 37.7534 1.40738 36.821 1.80698C36.821 1.80698 36.8543 1.84028 36.9209 1.90688C37.5869 2.60618 38.3195 3.12233 39.1187 3.45533C40.6505 4.08803 42.2489 4.05473 43.9139 3.35543ZM21.6861 33.3255C20.1876 34.6242 19.3052 36.1726 19.0388 37.9708C18.839 39.2695 18.9389 40.6348 19.3385 42.0667C19.5383 42.766 19.7714 43.3488 20.0378 43.815C21.7028 42.4164 22.6685 40.818 22.9349 39.0198C23.1347 37.7211 22.9848 36.3891 22.4853 35.0238C22.2522 34.3245 21.9858 33.7584 21.6861 33.3255ZM25.7321 46.2126C26.7644 45.3135 27.5469 44.3311 28.0797 43.2655C28.5126 42.3664 28.7291 41.434 28.7291 40.4683C28.7624 39.6691 28.6625 38.8533 28.4294 38.0208C28.2629 37.4547 28.0464 36.9052 27.78 36.3724L27.3804 35.7231C25.9485 37.0218 25.0827 38.5702 24.783 40.3684C24.5832 41.6671 24.6831 43.0324 25.0827 44.4643C25.2825 45.1636 25.499 45.7464 25.7321 46.2126ZM13.4444 40.4683C12.9116 39.2362 12.2123 38.2206 11.3465 37.4214C10.5806 36.7221 9.71477 36.1726 8.74906 35.773C7.94986 35.44 7.10071 35.2236 6.20161 35.1237C5.56891 35.0571 4.91956 35.0404 4.25356 35.0737L3.50431 35.1736C4.27021 36.9052 5.51896 38.2372 7.25056 39.1696C8.48266 39.8023 9.88127 40.2186 11.4464 40.4184C12.2123 40.485 12.8783 40.5016 13.4444 40.4683ZM6.20161 45.0138C7.70011 46.2459 9.41506 46.8952 11.3465 46.9618C12.7451 46.9951 14.177 46.7454 15.6422 46.2126C16.4081 45.9462 17.0241 45.6798 17.4903 45.4134C15.8586 44.0148 14.0604 43.2822 12.0957 43.2156C10.7304 43.1823 9.33181 43.4653 7.89991 44.0647C7.20061 44.3644 6.63451 44.6808 6.20161 45.0138ZM13.8939 48.9598C14.8263 49.7257 15.8586 50.2752 16.9908 50.6082C17.9565 50.8746 18.9722 50.9745 20.0378 50.9079C20.9036 50.8413 21.7694 50.6748 22.6352 50.4084C23.2679 50.2419 23.8839 50.0088 24.4833 49.7091L25.1826 49.3594C23.5842 47.9941 21.8027 47.2615 19.838 47.1616C18.4394 47.1283 17.0408 47.4114 15.6422 48.0108C14.9096 48.3438 14.3268 48.6601 13.8939 48.9598ZM9.44837 34.2246C8.74906 32.5263 7.65016 31.2775 6.15166 30.4783C5.08606 29.9122 3.87061 29.5959 2.50531 29.5293C1.83931 29.496 1.27321 29.5293 0.807007 29.6292C1.47301 31.161 2.55526 32.3098 4.05376 33.0757C5.11936 33.6418 6.35146 34.0081 7.75006 34.1746C8.41606 34.2412 8.98216 34.2579 9.44837 34.2246ZM2.40541 21.1876C2.33881 22.453 2.58856 23.6351 3.15466 24.7341C3.62086 25.5999 4.28686 26.3824 5.15266 27.0817C5.75206 27.5812 6.41806 28.0141 7.15066 28.3804L8.09971 28.83C8.19961 27.6645 8.06641 26.6155 7.70011 25.6831C7.40041 24.8839 6.93421 24.1513 6.30151 23.4853C5.80201 22.9858 5.21926 22.5362 4.55326 22.1366C4.05376 21.8369 3.55426 21.5872 3.05476 21.3874L2.40541 21.1876ZM20.787 0.957829C19.9878 1.09103 19.2885 1.39073 18.6891 1.85693C18.2229 2.22323 17.8233 2.68943 17.4903 3.25553C17.2905 3.65513 17.124 4.07138 16.9908 4.50428L16.841 5.10368C17.7401 4.93718 18.506 4.62083 19.1387 4.15463C19.6382 3.78833 20.0211 3.33878 20.2875 2.80598C20.5206 2.40638 20.6705 1.97348 20.7371 1.50728L20.787 0.957829ZM8.89891 25.5832C10.6971 25.2502 12.0957 24.5176 13.0947 23.3854C13.794 22.5862 14.2769 21.6205 14.5433 20.4883C14.6765 19.9222 14.7264 19.4393 14.6931 19.0397C13.461 19.3061 12.4121 19.8056 11.5463 20.5382C10.847 21.1376 10.2642 21.8702 9.79802 22.736C9.46502 23.3354 9.21527 23.9848 9.04877 24.6841L8.89891 25.5832ZM12.2456 12.9458C13.8107 13.3121 15.2426 13.2289 16.5413 12.6961C17.4404 12.2965 18.2396 11.6804 18.9389 10.8479C19.2719 10.4483 19.5216 10.082 19.6881 9.74903C18.2229 9.44933 16.8576 9.58253 15.5922 10.1486C14.6598 10.5149 13.8273 11.0977 13.0947 11.8969C12.6951 12.2965 12.4121 12.6461 12.2456 12.9458ZM28.2795 1.75703C27.3471 1.35743 26.4147 1.20758 25.4823 1.30748C24.7497 1.34078 24.0005 1.52393 23.2346 1.85693C22.7018 2.12333 22.2023 2.43968 21.7361 2.80598L21.1866 3.25553C22.4853 3.85493 23.7507 4.02143 24.9828 3.75503C25.8486 3.55523 26.6645 3.17228 27.4304 2.60618C27.7967 2.30648 28.0797 2.02343 28.2795 1.75703Z" fill="#85D95F"/>
</g>
<defs>
<clipPath id="clip0_138_20">
<rect width="64.05" height="50" fill="white" transform="matrix(1 0 0 -1 0.799988 50.9579)"/>
</clipPath>
</defs>
</svg>
