<svg width="12" height="13" viewBox="0 0 12 13" fill="none" xmlns="http://www.w3.org/2000/svg">
<g clip-path="url(#clip0_92_931)">
<path d="M6.89306 7.81307C6.89306 7.81307 6.98374 7.72239 7.1651 7.54103C7.34647 7.35967 7.43715 7.01266 7.43715 6.50001C7.43715 5.98736 7.25578 5.54968 6.89306 5.18696C6.53034 4.82423 6.09265 4.64287 5.58 4.64287C5.06736 4.64287 4.62967 4.82423 4.26695 5.18696C3.90422 5.54968 3.72286 5.98736 3.72286 6.50001C3.72286 7.01266 3.90422 7.45035 4.26695 7.81307C4.62967 8.17579 5.06736 8.35716 5.58 8.35716C6.09265 8.35716 6.53034 8.17579 6.89306 7.81307ZM7.604 4.47602C7.604 4.47602 7.74304 4.61506 8.02113 4.89315C8.29922 5.17124 8.43826 5.70686 8.43826 6.50001C8.43826 7.29317 8.16018 7.96783 7.604 8.52401C7.04782 9.08018 6.37316 9.35827 5.58 9.35827C4.78685 9.35827 4.11218 9.08018 3.55601 8.52401C2.99983 7.96783 2.72175 7.29317 2.72175 6.50001C2.72175 5.70686 2.99983 5.03219 3.55601 4.47602C4.11218 3.91984 4.78685 3.64175 5.58 3.64175C6.37316 3.64175 7.04782 3.91984 7.604 4.47602ZM9.02587 3.05414C9.02587 3.05414 9.05852 3.08679 9.12381 3.15208C9.1891 3.21737 9.22174 3.3419 9.22174 3.52568C9.22174 3.70946 9.15646 3.86664 9.02587 3.99722C8.89529 4.1278 8.73811 4.19309 8.55433 4.19309C8.37055 4.19309 8.21337 4.1278 8.08279 3.99722C7.95221 3.86664 7.88692 3.70946 7.88692 3.52568C7.88692 3.3419 7.95221 3.18472 8.08279 3.05414C8.21337 2.92356 8.37055 2.85827 8.55433 2.85827C8.73811 2.85827 8.89529 2.92356 9.02587 3.05414ZM6.13497 1.92607C6.13497 1.92607 6.05094 1.92668 5.88288 1.92789C5.71482 1.9291 5.61386 1.9297 5.58 1.9297C5.54615 1.9297 5.36116 1.92849 5.02504 1.92607C4.68891 1.92366 4.4338 1.92366 4.25969 1.92607C4.08558 1.92849 3.85223 1.93575 3.55964 1.94784C3.26704 1.95993 3.01797 1.98411 2.81243 2.02038C2.60688 2.05665 2.43398 2.10139 2.29373 2.15459C2.05192 2.25132 1.83912 2.39157 1.65534 2.57535C1.47156 2.75913 1.33131 2.97193 1.23458 3.21374C1.18138 3.35399 1.13664 3.52689 1.10037 3.73244C1.0641 3.93798 1.03992 4.18705 1.02783 4.47964C1.01574 4.77224 1.00848 5.00559 1.00606 5.1797C1.00365 5.35381 1.00365 5.60892 1.00606 5.94505C1.00848 6.28117 1.00969 6.46616 1.00969 6.50001C1.00969 6.53387 1.00848 6.71886 1.00606 7.05498C1.00365 7.3911 1.00365 7.64622 1.00606 7.82033C1.00848 7.99443 1.01574 8.22778 1.02783 8.52038C1.03992 8.81298 1.0641 9.06205 1.10037 9.26759C1.13664 9.47313 1.18138 9.64603 1.23458 9.78629C1.33131 10.0281 1.47156 10.2409 1.65534 10.4247C1.83912 10.6085 2.05192 10.7487 2.29373 10.8454C2.43398 10.8986 2.60688 10.9434 2.81243 10.9796C3.01797 11.0159 3.26704 11.0401 3.55964 11.0522C3.85223 11.0643 4.08558 11.0715 4.25969 11.074C4.4338 11.0764 4.68891 11.0764 5.02504 11.074C5.36116 11.0715 5.54615 11.0703 5.58 11.0703C5.61386 11.0703 5.79885 11.0715 6.13497 11.074C6.47109 11.0764 6.72621 11.0764 6.90032 11.074C7.07442 11.0715 7.30778 11.0643 7.60037 11.0522C7.89297 11.0401 8.14204 11.0159 8.34758 10.9796C8.55313 10.9434 8.72602 10.8986 8.86628 10.8454C9.10809 10.7487 9.32089 10.6085 9.50467 10.4247C9.68845 10.2409 9.8287 10.0281 9.92543 9.78629C9.97863 9.64603 10.0234 9.47313 10.0596 9.26759C10.0959 9.06205 10.1201 8.81298 10.1322 8.52038C10.1443 8.22778 10.1515 7.99443 10.1539 7.82033C10.1564 7.64622 10.1564 7.3911 10.1539 7.05498C10.1515 6.71886 10.1503 6.53387 10.1503 6.50001C10.1503 6.46616 10.1515 6.28117 10.1539 5.94505C10.1564 5.60892 10.1564 5.35381 10.1539 5.1797C10.1515 5.00559 10.1443 4.77224 10.1322 4.47964C10.1201 4.18705 10.0959 3.93798 10.0596 3.73244C10.0234 3.52689 9.97863 3.35399 9.92543 3.21374C9.8287 2.97193 9.68845 2.75913 9.50467 2.57535C9.32089 2.39157 9.10809 2.25132 8.86628 2.15459C8.72602 2.10139 8.55313 2.05665 8.34758 2.02038C8.14204 1.98411 7.89297 1.95993 7.60037 1.94784C7.30778 1.93575 7.07442 1.92849 6.90032 1.92607C6.72621 1.92366 6.47109 1.92366 6.13497 1.92607ZM11.1152 4.20035C11.1393 4.62594 11.1514 5.3925 11.1514 6.50001C11.1514 7.60753 11.1393 8.37408 11.1152 8.79968C11.0668 9.80563 10.7669 10.5843 10.2156 11.1356C9.66427 11.687 8.88562 11.9868 7.87967 12.0352C7.45407 12.0594 6.68752 12.0714 5.58 12.0714C4.47249 12.0714 3.70593 12.0594 3.28034 12.0352C2.27439 11.9868 1.49574 11.687 0.944401 11.1356C0.393062 10.5843 0.0932109 9.80563 0.0448478 8.79968C0.0206662 8.37408 0.00857544 7.60753 0.00857544 6.50001C0.00857544 5.3925 0.0206662 4.62594 0.0448478 4.20035C0.0932109 3.1944 0.393062 2.41575 0.944401 1.86441C1.49574 1.31307 2.27439 1.01322 3.28034 0.964857C3.70593 0.940676 4.47249 0.928585 5.58 0.928585C6.68752 0.928585 7.45407 0.940676 7.87967 0.964857C8.88562 1.01322 9.66427 1.31307 10.2156 1.86441C10.7669 2.41575 11.0668 3.1944 11.1152 4.20035Z" fill="white"/>
</g>
<defs>
<clipPath id="clip0_92_931">
<rect width="11.16" height="13" fill="white" transform="matrix(1 0 0 -1 0 13)"/>
</clipPath>
</defs>
</svg>
