<svg width="24" height="28" viewBox="0 0 24 28" fill="none" xmlns="http://www.w3.org/2000/svg">
<path d="M12 3.90576C14.717 3.90576 15.0559 3.91575 16.122 3.96576C17.187 4.01576 17.9119 4.18275 18.55 4.43076C19.21 4.68476 19.7659 5.02875 20.322 5.58375C20.8305 6.08366 21.2239 6.68835 21.475 7.35576C21.7219 7.99275 21.8899 8.71875 21.94 9.78375C21.987 10.8498 22 11.1888 22 13.9058C22 16.6227 21.99 16.9617 21.94 18.0278C21.8899 19.0928 21.7219 19.8177 21.475 20.4557C21.2247 21.1235 20.8311 21.7284 20.322 22.2278C19.822 22.7361 19.2172 23.1294 18.55 23.3807C17.913 23.6277 17.187 23.7957 16.122 23.8457C15.0559 23.8928 14.717 23.9057 12 23.9057C9.28301 23.9057 8.94401 23.8958 7.87801 23.8457C6.813 23.7957 6.08801 23.6277 5.45 23.3807C4.78233 23.1302 4.17754 22.7367 3.678 22.2278C3.16941 21.728 2.77593 21.1232 2.525 20.4557C2.277 19.8188 2.11001 19.0928 2.06 18.0278C2.013 16.9617 2 16.6227 2 13.9058C2 11.1888 2.01 10.8498 2.06 9.78375C2.11001 8.71776 2.277 7.99376 2.525 7.35576C2.77524 6.68793 3.16881 6.08309 3.678 5.58375C4.17767 5.075 4.78244 4.68149 5.45 4.43076C6.08801 4.18275 6.812 4.01576 7.87801 3.96576C8.94401 3.91875 9.28301 3.90576 12 3.90576ZM12 8.90576C10.6739 8.90576 9.40216 9.43254 8.46448 10.3702C7.5268 11.3079 7.00001 12.5797 7.00001 13.9058C7.00001 15.2318 7.5268 16.5036 8.46448 17.4413C9.40216 18.3789 10.6739 18.9057 12 18.9057C13.3261 18.9057 14.5979 18.3789 15.5355 17.4413C16.4733 16.5036 16.9999 15.2318 16.9999 13.9058C16.9999 12.5797 16.4733 11.3079 15.5355 10.3702C14.5979 9.43254 13.3261 8.90576 12 8.90576ZM18.4999 8.65575C18.4999 8.32424 18.3682 8.0063 18.1339 7.77188C17.8995 7.53746 17.5815 7.40576 17.25 7.40576C16.9185 7.40576 16.6005 7.53746 16.3662 7.77188C16.1317 8.0063 16 8.32424 16 8.65575C16 8.98728 16.1317 9.30522 16.3662 9.53964C16.6005 9.77406 16.9185 9.90576 17.25 9.90576C17.5815 9.90576 17.8995 9.77406 18.1339 9.53964C18.3682 9.30522 18.4999 8.98728 18.4999 8.65575ZM12 10.9058C12.7956 10.9058 13.5587 11.2218 14.1213 11.7844C14.6839 12.347 15 13.1101 15 13.9058C15 14.7014 14.6839 15.4645 14.1213 16.0271C13.5587 16.5897 12.7956 16.9058 12 16.9058C11.2044 16.9058 10.4413 16.5897 9.87869 16.0271C9.31607 15.4645 9.00001 14.7014 9.00001 13.9058C9.00001 13.1101 9.31607 12.347 9.87869 11.7844C10.4413 11.2218 11.2044 10.9058 12 10.9058Z" fill="#042F40"/>
</svg>
