<svg width="13" height="20" viewBox="0 0 13 20" fill="none" xmlns="http://www.w3.org/2000/svg">
<g clip-path="url(#clip0_92_936)">
<path d="M2.86039 8.53403V15.7232H0.466418V8.53403H2.86039ZM3.01273 6.31417C3.01757 6.66722 2.89545 6.96223 2.64638 7.19921C2.39731 7.43619 2.06965 7.55468 1.6634 7.55468H1.6489C1.25232 7.55468 0.933121 7.43619 0.691306 7.19921C0.449491 6.96223 0.328583 6.66722 0.328583 6.31417C0.328583 5.95628 0.453118 5.66006 0.702188 5.42549C0.951258 5.19093 1.2765 5.07365 1.67791 5.07365C2.07933 5.07365 2.40094 5.19093 2.64276 5.42549C2.88457 5.66006 3.0079 5.95628 3.01273 6.31417ZM11.4714 11.6027V15.7232H9.08472V11.8783C9.08472 11.3705 8.98679 10.9727 8.79092 10.685C8.59504 10.3972 8.28915 10.2533 7.87323 10.2533C7.56854 10.2533 7.31342 10.3368 7.10788 10.5036C6.90234 10.6705 6.74878 10.8772 6.64722 11.1239C6.59402 11.269 6.56742 11.4648 6.56742 11.7115V15.7232H4.1807C4.19038 13.7935 4.19521 12.229 4.19521 11.0296C4.19521 9.83016 4.19279 9.11439 4.18796 8.88225L4.1807 8.53403H6.56742V9.57867H6.55291C6.64964 9.42391 6.74878 9.2885 6.85035 9.17242C6.95191 9.05635 7.08853 8.93061 7.26022 8.79519C7.43191 8.65978 7.64229 8.55459 7.89136 8.47962C8.14043 8.40466 8.41731 8.36718 8.722 8.36718C9.54901 8.36718 10.214 8.64164 10.717 9.19056C11.22 9.73948 11.4714 10.5435 11.4714 11.6027Z" fill="white"/>
</g>
<defs>
<clipPath id="clip0_92_936">
<rect width="11.16" height="13" fill="white" transform="matrix(1 0 0 -1 0.320007 17)"/>
</clipPath>
</defs>
</svg>
