<svg width="24" height="28" viewBox="0 0 24 28" fill="none" xmlns="http://www.w3.org/2000/svg">
<path d="M21.2193 2H1.62714C0.72941 2 0 2.73961 0 3.64755V23.2038C0 24.1119 0.72941 24.8514 1.62714 24.8514H21.2193C22.1169 24.8514 22.8514 24.1119 22.8514 23.2038V3.64755C22.8514 2.73961 22.1169 2 21.2193 2ZM6.90643 21.5869H3.51953V10.6815H6.91154V21.5869H6.90643ZM5.21299 9.19208C4.12653 9.19208 3.24919 8.30965 3.24919 7.22828C3.24919 6.14693 4.12653 5.2645 5.21299 5.2645C6.29434 5.2645 7.17677 6.14693 7.17677 7.22828C7.17677 8.31474 6.29945 9.19208 5.21299 9.19208ZM19.6022 21.5869H16.2153V16.2821C16.2153 15.0172 16.1898 13.39 14.4556 13.39C12.6907 13.39 12.4204 14.7672 12.4204 16.1903V21.5869H9.03346V10.6815H12.2826V12.1709H12.3285C12.7825 11.314 13.8894 10.4112 15.5369 10.4112C18.9646 10.4112 19.6022 12.6708 19.6022 15.6088V21.5869Z" fill="#042F40"/>
</svg>
