<svg width="22" height="22" viewBox="0 0 22 22" fill="none" xmlns="http://www.w3.org/2000/svg">
<path d="M21.498 12.0166L21.498 12.0187C21.4899 14.3261 21.4908 16.6337 21.4917 18.9398C21.4919 19.6267 21.4922 20.3135 21.4922 21H0.506812C0.506844 20.2447 0.507222 19.4891 0.507601 18.7334C0.508723 16.4961 0.509845 14.2572 0.501961 12.0187H0.501996L0.501904 12.0127C0.500035 11.8917 0.500026 11.771 0.500034 11.644L0.500017 11.641C0.499391 11.5347 0.516115 11.4689 0.538229 11.4192C0.561387 11.3671 0.602805 11.3049 0.6875 11.2211C3.02444 8.91903 5.35841 6.61319 7.69026 4.30753C7.6903 4.30749 7.69034 4.30745 7.69039 4.30741L10.9995 1.03775C13.1609 3.17402 15.3225 5.31035 17.484 7.44483C18.7595 8.70457 20.0342 9.96245 21.3108 11.2204L21.3112 11.2208C21.3964 11.305 21.4382 11.3676 21.4616 11.4199C21.4838 11.4697 21.5006 11.5351 21.5 11.6405C21.4995 11.704 21.4993 11.7668 21.499 11.8285L21.499 11.8306C21.4988 11.8934 21.4985 11.9549 21.498 12.0166ZM11.066 0.972005C11.066 0.972071 11.0659 0.972138 11.0658 0.972204L11.066 0.972055L11.066 0.972005Z" stroke="white"/>
</svg>
