<svg width="20" height="21" viewBox="0 0 20 21" fill="none" xmlns="http://www.w3.org/2000/svg">
<path d="M9.99997 0.905762C4.47697 0.905762 -3.05176e-05 5.38275 -3.05176e-05 10.9058C-3.05176e-05 15.8967 3.65697 20.0337 8.43798 20.7848V13.7957H5.89797V10.9058H8.43798V8.70276C8.43798 6.19676 9.92997 4.81275 12.215 4.81275C13.309 4.81275 14.4529 5.00775 14.4529 5.00775V7.46775H13.1929C11.95 7.46775 11.563 8.23875 11.563 9.02976V10.9058H14.3359L13.893 13.7957H11.563V20.7848C16.3429 20.0348 19.9999 15.8957 19.9999 10.9058C19.9999 5.38275 15.523 0.905762 9.99997 0.905762Z" fill="#042F40"/>
</svg>
